<mxfile host="app.diagrams.net" modified="2021-05-13T11:21:25.541Z" agent="5.0 (Macintosh; Intel Mac OS X 10_15_7) AppleWebKit/537.36 (KHTML, like Gecko) Chrome/86.0.4240.193 Safari/537.36" etag="pBHUKurPehwwyLpfSVO_" version="14.6.11" type="github">
  <diagram id="ggHOKOFDzpn5by2C9Cfr" name="Page-1">
    <mxGraphModel dx="946" dy="536" grid="1" gridSize="10" guides="1" tooltips="1" connect="1" arrows="1" fold="1" page="1" pageScale="1" pageWidth="827" pageHeight="1169" math="0" shadow="0">
      <root>
        <mxCell id="0" />
        <mxCell id="1" parent="0" />
        <mxCell id="WXPuARuU6ua65XFEVFct-1" value="RebalanceService#run" style="rounded=1;whiteSpace=wrap;html=1;" vertex="1" parent="1">
          <mxGeometry x="140" y="210" width="160" height="60" as="geometry" />
        </mxCell>
        <mxCell id="WXPuARuU6ua65XFEVFct-2" value="MQClientInstance#doRebalance" style="rounded=1;whiteSpace=wrap;html=1;" vertex="1" parent="1">
          <mxGeometry x="120" y="300" width="200" height="60" as="geometry" />
        </mxCell>
        <mxCell id="WXPuARuU6ua65XFEVFct-3" value="RebalanceImpl#doRebalance" style="rounded=1;whiteSpace=wrap;html=1;" vertex="1" parent="1">
          <mxGeometry x="120" y="390" width="200" height="60" as="geometry" />
        </mxCell>
      </root>
    </mxGraphModel>
  </diagram>
</mxfile>
